<?xml version="1.0" encoding="UTF-8" standalone="no"?><!DOCTYPE svg PUBLIC "-//W3C//DTD SVG 1.1//EN" "http://www.w3.org/Graphics/SVG/1.1/DTD/svg11.dtd"><svg width="100%" height="100%" viewBox="0 0 493 493" version="1.1" xmlns="http://www.w3.org/2000/svg" xmlns:xlink="http://www.w3.org/1999/xlink" xml:space="preserve" xmlns:serif="http://www.serif.com/" style="fill-rule:evenodd;clip-rule:evenodd;stroke-linejoin:round;stroke-miterlimit:1.41421;"><path d="M484.14,226.886l-177.68,-177.684c-5.072,-5.072 -11.832,-7.856 -19.04,-7.856c-7.216,0 -13.972,2.788 -19.044,7.856l-16.132,16.136c-5.068,5.064 -7.86,11.828 -7.86,19.04c0,7.208 2.792,14.2 7.86,19.264l103.656,103.884l-329.32,0c-14.848,0 -26.58,11.624 -26.58,26.476l0,22.812c0,14.852 11.732,27.648 26.58,27.648l330.496,0l-104.828,104.464c-5.068,5.072 -7.86,11.652 -7.86,18.864c0,7.204 2.792,13.88 7.86,18.948l16.132,16.084c5.072,5.072 11.828,7.836 19.044,7.836c7.208,0 13.968,-2.8 19.04,-7.872l177.68,-177.68c5.084,-5.088 7.88,-11.88 7.86,-19.1c0.016,-7.244 -2.776,-14.04 -7.864,-19.12Z" style="fill:#3034ba;fill-rule:nonzero;"/></svg>