<svg xmlns="http://www.w3.org/2000/svg" xmlns:xlink="http://www.w3.org/1999/xlink" xmlns:serif="http://www.serif.com/" viewBox="0 0 162 36" version="1.1" xml:space="preserve" style="fill-rule:evenodd;clip-rule:evenodd;stroke-linejoin:round;stroke-miterlimit:1.41421;"><g id="uxlab-logo-white"><path d="M23.149,11.823c0,-6.296 -5.112,-11.408 -11.408,-11.408c-6.296,0 -11.408,5.112 -11.408,11.408c0,6.296 5.112,11.407 11.408,11.407c6.296,0 11.408,-5.111 11.408,-11.407Z" style="fill:#34ca9d;"/><g transform="matrix(1.59843,0,0,1.59843,-204.237,-651.926)"><text x="149.782px" y="426.658px" style="font-family:'Ubuntu-Bold', 'Ubuntu', sans-serif;font-weight:700;font-size:20px;fill:#fff;">UX</text><text x="177.422px" y="426.658px" style="font-family:'Ubuntu-Regular', 'Ubuntu', sans-serif;font-size:20px;fill:#fff;">Lapse</text></g><path d="M22.891,5.49c2.066,-0.05 4.113,-0.076 6.159,-0.006c0.514,0.066 0.894,0.463 0.919,0.997l0,24.025c-0.024,0.527 -0.404,0.925 -1,1l-24.025,0c-0.561,-0.026 -0.975,-0.453 -1,-1l0,-8.488l0.994,0.723l1.006,0.489l0,6.276l22.025,0l0,-22.013l-4.1,0.052l-0.034,-0.121l-0.944,-1.934Z" style="fill:#fff;"/></g></svg>